# Rhino

mtllib test5-2松本家モデリング.mtl
usemtl diffuse_255_0_0_255
v -1725.382568359375 60.435527801513672 1274.410888671875
v -1725.382568359375 60.435527801513672 -628.71160888671875
v -657.85076904296875 60.435527801513672 1274.410888671875
v -657.85076904296875 60.435527801513672 -628.71160888671875
v -657.85076904296875 60.435527801513672 1274.410888671875
v -657.85076904296875 523.77960205078125 1274.410888671875
v -1725.382568359375 60.435527801513672 1274.410888671875
v -1725.382568359375 523.77960205078125 1274.410888671875
v -657.85076904296875 60.435527801513672 -628.71160888671875
v -657.85076904296875 523.77960205078125 -628.71160888671875
v -657.85076904296875 60.435527801513672 1274.410888671875
v -657.85076904296875 523.77960205078125 1274.410888671875
v -1725.382568359375 60.435527801513672 -628.71160888671875
v -1725.382568359375 523.77960205078125 -628.71160888671875
v -657.85076904296875 60.435527801513672 -628.71160888671875
v -657.85076904296875 523.77960205078125 -628.71160888671875
v -1725.382568359375 60.435527801513672 1274.410888671875
v -1725.382568359375 523.77960205078125 1274.410888671875
v -1725.382568359375 60.435527801513672 -628.71160888671875
v -1725.382568359375 523.77960205078125 -628.71160888671875
v -1725.382568359375 523.77960205078125 1274.410888671875
v -1725.382568359375 523.77960205078125 -628.71160888671875
v -657.85076904296875 523.77960205078125 1274.410888671875
v -657.85076904296875 523.77960205078125 -628.71160888671875
vt 0.31194746494293213 0.35935917496681213
vt 0.31194746494293213 0.99853515625
vt 0.66984176635742188 0.35935917496681213
vt 0.66984176635742188 0.99853515625
vt 0.31048262119293213 0.35935917496681213
vt 0.15597373247146606 0.35935917496681213
vt 0.31048262119293213 0.71871834993362427
vt 0.15597373247146606 0.71871834993362427
vt 0.981789231300354 0
vt 0.82728034257888794 0
vt 0.981789231300354 0.64064085483551025
vt 0.82728034257888794 0.64064085483551025
vt 0.15450888872146606 0.35935917496681213
vt 0 0.35935917496681213
vt 0.15450888872146606 0.71871834993362427
vt 0 0.71871834993362427
vt 0.82581549882888794 0
vt 0.67130661010742188 0
vt 0.82581549882888794 0.64064085483551025
vt 0.67130661010742188 0.64064085483551025
vt 0.64064085483551025 0
vt 0 0
vt 0.64064085483551025 0.35789433121681213
vt 0 0.35789433121681213
vn 0 -1 0
vn 0 -1 0
vn 0 -1 0
vn 0 -1 0
vn 0 0 1
vn 0 0 1
vn 0 0 1
vn 0 0 1
vn 1 0 0
vn 1 0 0
vn 1 0 0
vn 1 0 0
vn 0 0 -1
vn 0 0 -1
vn 0 0 -1
vn 0 0 -1
vn -1 0 0
vn -1 0 0
vn -1 0 0
vn -1 0 0
vn 0 1 0
vn 0 1 0
vn 0 1 0
vn 0 1 0
f 2/2/2 4/4/4 3/3/3 1/1/1
f 6/6/6 8/8/8 7/7/7 5/5/5
f 10/10/10 12/12/12 11/11/11 9/9/9
f 14/14/14 16/16/16 15/15/15 13/13/13
f 18/18/18 20/20/20 19/19/19 17/17/17
f 22/22/22 21/21/21 23/23/23 24/24/24
